%TF.GenerationSoftware,KiCad,Pcbnew,9.0.3*%
%TF.CreationDate,2025-07-15T18:58:05-04:00*%
%TF.ProjectId,CNC PCB,434e4320-5043-4422-9e6b-696361645f70,rev?*%
%TF.SameCoordinates,Original*%
%TF.FileFunction,Legend,Top*%
%TF.FilePolarity,Positive*%
%FSLAX46Y46*%
G04 Gerber Fmt 4.6, Leading zero omitted, Abs format (unit mm)*
G04 Created by KiCad (PCBNEW 9.0.3) date 2025-07-15 18:58:05*
%MOMM*%
%LPD*%
G01*
G04 APERTURE LIST*
%ADD10C,0.100000*%
%ADD11C,0.381000*%
G04 APERTURE END LIST*
%TO.C,J4*%
D10*
X86360000Y-153670000D02*
X78740000Y-153670000D01*
X78740000Y-138430000D01*
X86360000Y-138430000D01*
X86360000Y-153670000D01*
D11*
%TO.C,SHIELD1*%
X83820000Y-27940000D02*
X137160000Y-27940000D01*
X83820000Y-106680000D02*
X83820000Y-27940000D01*
X86360000Y-106680000D02*
X83820000Y-106680000D01*
X88900000Y-109220000D02*
X86360000Y-106680000D01*
X121920000Y-109220000D02*
X88900000Y-109220000D01*
X124460000Y-106680000D02*
X121920000Y-109220000D01*
X124460000Y-106680000D02*
X135890000Y-106680000D01*
X135890000Y-106680000D02*
X137160000Y-105410000D01*
X137160000Y-105410000D02*
X137160000Y-27940000D01*
%TO.C,U5*%
D10*
X147320000Y-68580000D02*
X165100000Y-68580000D01*
X165100000Y-60960000D01*
X147320000Y-60960000D01*
X147320000Y-68580000D01*
%TO.C,J3*%
X109220000Y-153670000D02*
X101600000Y-153670000D01*
X101600000Y-138430000D01*
X109220000Y-138430000D01*
X109220000Y-153670000D01*
%TO.C,U3*%
X88900000Y-114300000D02*
X106680000Y-114300000D01*
X106680000Y-137160000D01*
X88900000Y-137160000D01*
X88900000Y-114300000D01*
%TO.C,U4*%
X66040000Y-114300000D02*
X83820000Y-114300000D01*
X83820000Y-137160000D01*
X66040000Y-137160000D01*
X66040000Y-114300000D01*
%TO.C,J1*%
X157480000Y-153670000D02*
X149860000Y-153670000D01*
X149860000Y-138430000D01*
X157480000Y-138430000D01*
X157480000Y-153670000D01*
%TO.C,U1*%
X137160000Y-114300000D02*
X154940000Y-114300000D01*
X154940000Y-137160000D01*
X137160000Y-137160000D01*
X137160000Y-114300000D01*
%TO.C,J5*%
X157734000Y-121920000D02*
X165354000Y-121920000D01*
X165354000Y-137160000D01*
X157734000Y-137160000D01*
X157734000Y-121920000D01*
%TO.C,J2*%
X134620000Y-153670000D02*
X127000000Y-153670000D01*
X127000000Y-138430000D01*
X134620000Y-138430000D01*
X134620000Y-153670000D01*
%TO.C,U2*%
X114300000Y-114300000D02*
X132080000Y-114300000D01*
X132080000Y-137160000D01*
X114300000Y-137160000D01*
X114300000Y-114300000D01*
%TD*%
M02*
