%TF.GenerationSoftware,KiCad,Pcbnew,9.0.3*%
%TF.CreationDate,2025-07-15T18:58:05-04:00*%
%TF.ProjectId,CNC PCB,434e4320-5043-4422-9e6b-696361645f70,rev?*%
%TF.SameCoordinates,Original*%
%TF.FileFunction,Soldermask,Top*%
%TF.FilePolarity,Negative*%
%FSLAX46Y46*%
G04 Gerber Fmt 4.6, Leading zero omitted, Abs format (unit mm)*
G04 Created by KiCad (PCBNEW 9.0.3) date 2025-07-15 18:58:05*
%MOMM*%
%LPD*%
G01*
G04 APERTURE LIST*
%ADD10C,2.000000*%
G04 APERTURE END LIST*
D10*
%TO.C,J4*%
X81280000Y-148590000D03*
X81280000Y-146050000D03*
X81280000Y-143510000D03*
X81280000Y-140970000D03*
%TD*%
%TO.C,SHIELD1*%
X134620000Y-71120000D03*
X134620000Y-68580000D03*
X134620000Y-66040000D03*
X134620000Y-63500000D03*
X86360000Y-43180000D03*
X134620000Y-60960000D03*
X134620000Y-58420000D03*
X86360000Y-45720000D03*
X134620000Y-101600000D03*
X134620000Y-104140000D03*
X134620000Y-55880000D03*
X134620000Y-53340000D03*
X134620000Y-49276000D03*
X134620000Y-46736000D03*
X134620000Y-44196000D03*
X134620000Y-41656000D03*
X134620000Y-39116000D03*
X134620000Y-36576000D03*
X134620000Y-76200000D03*
X134620000Y-78740000D03*
X134620000Y-81280000D03*
X134620000Y-83820000D03*
X134620000Y-86360000D03*
X134620000Y-88900000D03*
X134620000Y-91440000D03*
X134620000Y-93980000D03*
X132080000Y-101600000D03*
X132080000Y-104140000D03*
X129540000Y-101600000D03*
X129540000Y-104140000D03*
X127000000Y-101600000D03*
X127000000Y-104140000D03*
X124460000Y-101600000D03*
X124460000Y-104140000D03*
X121920000Y-101600000D03*
X121920000Y-104140000D03*
X119380000Y-101600000D03*
X119380000Y-104140000D03*
X116840000Y-101600000D03*
X116840000Y-104140000D03*
X114300000Y-101600000D03*
X114300000Y-104140000D03*
X111760000Y-101600000D03*
X111760000Y-104140000D03*
X109220000Y-101600000D03*
X109220000Y-104140000D03*
X106680000Y-101600000D03*
X106680000Y-104140000D03*
X104140000Y-101600000D03*
X104140000Y-104140000D03*
X101600000Y-101600000D03*
X101600000Y-104140000D03*
X99060000Y-101600000D03*
X99060000Y-104140000D03*
X96520000Y-101600000D03*
X96520000Y-104140000D03*
X93980000Y-101600000D03*
X93980000Y-104140000D03*
X86360000Y-58420000D03*
X86360000Y-60960000D03*
X86360000Y-63500000D03*
X86360000Y-66040000D03*
X86360000Y-68580000D03*
X86360000Y-71120000D03*
X86360000Y-73660000D03*
X86360000Y-76200000D03*
X86360000Y-81280000D03*
X86360000Y-83820000D03*
X86360000Y-86360000D03*
X86360000Y-88900000D03*
X86360000Y-91440000D03*
X86360000Y-93980000D03*
X86360000Y-96520000D03*
X86360000Y-99060000D03*
X134620000Y-31496000D03*
X86360000Y-48260000D03*
X86360000Y-50800000D03*
X134620000Y-34036000D03*
X91440000Y-101600000D03*
X91440000Y-104140000D03*
X86360000Y-40640000D03*
X86360000Y-53340000D03*
%TD*%
%TO.C,U5*%
X152400000Y-66040000D03*
X154940000Y-66040000D03*
X157480000Y-66040000D03*
X160020000Y-66040000D03*
X162560000Y-66040000D03*
X152400000Y-63500000D03*
X154940000Y-63500000D03*
X157480000Y-63500000D03*
X160020000Y-63500000D03*
X162560000Y-63500000D03*
%TD*%
%TO.C,J3*%
X104140000Y-148590000D03*
X104140000Y-146050000D03*
X104140000Y-143510000D03*
X104140000Y-140970000D03*
%TD*%
%TO.C,U3*%
X91440000Y-116840000D03*
X91440000Y-119380000D03*
X91440000Y-121920000D03*
X91440000Y-124460000D03*
X91440000Y-127000000D03*
X91440000Y-129540000D03*
X91440000Y-132080000D03*
X91440000Y-134620000D03*
X104140000Y-116840000D03*
X104140000Y-119380000D03*
X104140000Y-121920000D03*
X104140000Y-124460000D03*
X104140000Y-127000000D03*
X104140000Y-129540000D03*
X104140000Y-132080000D03*
X104140000Y-134620000D03*
X93980000Y-116840000D03*
X96520000Y-116840000D03*
%TD*%
%TO.C,U4*%
X68580000Y-116840000D03*
X68580000Y-119380000D03*
X68580000Y-121920000D03*
X68580000Y-124460000D03*
X68580000Y-127000000D03*
X68580000Y-129540000D03*
X68580000Y-132080000D03*
X68580000Y-134620000D03*
X81280000Y-116840000D03*
X81280000Y-119380000D03*
X81280000Y-121920000D03*
X81280000Y-124460000D03*
X81280000Y-127000000D03*
X81280000Y-129540000D03*
X81280000Y-132080000D03*
X81280000Y-134620000D03*
X71120000Y-116840000D03*
X73660000Y-116840000D03*
%TD*%
%TO.C,J1*%
X152400000Y-148590000D03*
X152400000Y-146050000D03*
X152400000Y-143510000D03*
X152400000Y-140970000D03*
%TD*%
%TO.C,U1*%
X139700000Y-116840000D03*
X139700000Y-119380000D03*
X139700000Y-121920000D03*
X139700000Y-124460000D03*
X139700000Y-127000000D03*
X139700000Y-129540000D03*
X139700000Y-132080000D03*
X139700000Y-134620000D03*
X152400000Y-116840000D03*
X152400000Y-119380000D03*
X152400000Y-121920000D03*
X152400000Y-124460000D03*
X152400000Y-127000000D03*
X152400000Y-129540000D03*
X152400000Y-132080000D03*
X152400000Y-134620000D03*
X142240000Y-116840000D03*
X144780000Y-116840000D03*
%TD*%
%TO.C,J5*%
X162814000Y-127000000D03*
X162814000Y-129540000D03*
%TD*%
%TO.C,J2*%
X129540000Y-148590000D03*
X129540000Y-146050000D03*
X129540000Y-143510000D03*
X129540000Y-140970000D03*
%TD*%
%TO.C,U2*%
X116840000Y-116840000D03*
X116840000Y-119380000D03*
X116840000Y-121920000D03*
X116840000Y-124460000D03*
X116840000Y-127000000D03*
X116840000Y-129540000D03*
X116840000Y-132080000D03*
X116840000Y-134620000D03*
X129540000Y-116840000D03*
X129540000Y-119380000D03*
X129540000Y-121920000D03*
X129540000Y-124460000D03*
X129540000Y-127000000D03*
X129540000Y-129540000D03*
X129540000Y-132080000D03*
X129540000Y-134620000D03*
X119380000Y-116840000D03*
X121920000Y-116840000D03*
%TD*%
M02*
