M48
; DRILL file {KiCad 9.0.3} date 2025-07-15T18:58:10-0400
; FORMAT={-:-/ absolute / metric / decimal}
; #@! TF.CreationDate,2025-07-15T18:58:10-04:00
; #@! TF.GenerationSoftware,Kicad,Pcbnew,9.0.3
; #@! TF.FileFunction,Plated,1,2,PTH
FMAT,2
METRIC
; #@! TA.AperFunction,Plated,PTH,ComponentDrill
T1C1.300
%
G90
G05
T1
X68.58Y-116.84
X68.58Y-119.38
X68.58Y-121.92
X68.58Y-124.46
X68.58Y-127.0
X68.58Y-129.54
X68.58Y-132.08
X68.58Y-134.62
X71.12Y-116.84
X73.66Y-116.84
X81.28Y-116.84
X81.28Y-119.38
X81.28Y-121.92
X81.28Y-124.46
X81.28Y-127.0
X81.28Y-129.54
X81.28Y-132.08
X81.28Y-134.62
X81.28Y-140.97
X81.28Y-143.51
X81.28Y-146.05
X81.28Y-148.59
X86.36Y-40.64
X86.36Y-43.18
X86.36Y-45.72
X86.36Y-48.26
X86.36Y-50.8
X86.36Y-53.34
X86.36Y-58.42
X86.36Y-60.96
X86.36Y-63.5
X86.36Y-66.04
X86.36Y-68.58
X86.36Y-71.12
X86.36Y-73.66
X86.36Y-76.2
X86.36Y-81.28
X86.36Y-83.82
X86.36Y-86.36
X86.36Y-88.9
X86.36Y-91.44
X86.36Y-93.98
X86.36Y-96.52
X86.36Y-99.06
X91.44Y-101.6
X91.44Y-104.14
X91.44Y-116.84
X91.44Y-119.38
X91.44Y-121.92
X91.44Y-124.46
X91.44Y-127.0
X91.44Y-129.54
X91.44Y-132.08
X91.44Y-134.62
X93.98Y-101.6
X93.98Y-104.14
X93.98Y-116.84
X96.52Y-101.6
X96.52Y-104.14
X96.52Y-116.84
X99.06Y-101.6
X99.06Y-104.14
X101.6Y-101.6
X101.6Y-104.14
X104.14Y-101.6
X104.14Y-104.14
X104.14Y-116.84
X104.14Y-119.38
X104.14Y-121.92
X104.14Y-124.46
X104.14Y-127.0
X104.14Y-129.54
X104.14Y-132.08
X104.14Y-134.62
X104.14Y-140.97
X104.14Y-143.51
X104.14Y-146.05
X104.14Y-148.59
X106.68Y-101.6
X106.68Y-104.14
X109.22Y-101.6
X109.22Y-104.14
X111.76Y-101.6
X111.76Y-104.14
X114.3Y-101.6
X114.3Y-104.14
X116.84Y-101.6
X116.84Y-104.14
X116.84Y-116.84
X116.84Y-119.38
X116.84Y-121.92
X116.84Y-124.46
X116.84Y-127.0
X116.84Y-129.54
X116.84Y-132.08
X116.84Y-134.62
X119.38Y-101.6
X119.38Y-104.14
X119.38Y-116.84
X121.92Y-101.6
X121.92Y-104.14
X121.92Y-116.84
X124.46Y-101.6
X124.46Y-104.14
X127.0Y-101.6
X127.0Y-104.14
X129.54Y-101.6
X129.54Y-104.14
X129.54Y-116.84
X129.54Y-119.38
X129.54Y-121.92
X129.54Y-124.46
X129.54Y-127.0
X129.54Y-129.54
X129.54Y-132.08
X129.54Y-134.62
X129.54Y-140.97
X129.54Y-143.51
X129.54Y-146.05
X129.54Y-148.59
X132.08Y-101.6
X132.08Y-104.14
X134.62Y-31.496
X134.62Y-34.036
X134.62Y-36.576
X134.62Y-39.116
X134.62Y-41.656
X134.62Y-44.196
X134.62Y-46.736
X134.62Y-49.276
X134.62Y-53.34
X134.62Y-55.88
X134.62Y-58.42
X134.62Y-60.96
X134.62Y-63.5
X134.62Y-66.04
X134.62Y-68.58
X134.62Y-71.12
X134.62Y-76.2
X134.62Y-78.74
X134.62Y-81.28
X134.62Y-83.82
X134.62Y-86.36
X134.62Y-88.9
X134.62Y-91.44
X134.62Y-93.98
X134.62Y-101.6
X134.62Y-104.14
X139.7Y-116.84
X139.7Y-119.38
X139.7Y-121.92
X139.7Y-124.46
X139.7Y-127.0
X139.7Y-129.54
X139.7Y-132.08
X139.7Y-134.62
X142.24Y-116.84
X144.78Y-116.84
X152.4Y-63.5
X152.4Y-66.04
X152.4Y-116.84
X152.4Y-119.38
X152.4Y-121.92
X152.4Y-124.46
X152.4Y-127.0
X152.4Y-129.54
X152.4Y-132.08
X152.4Y-134.62
X152.4Y-140.97
X152.4Y-143.51
X152.4Y-146.05
X152.4Y-148.59
X154.94Y-63.5
X154.94Y-66.04
X157.48Y-63.5
X157.48Y-66.04
X160.02Y-63.5
X160.02Y-66.04
X162.56Y-63.5
X162.56Y-66.04
X162.814Y-127.0
X162.814Y-129.54
M30
